<svg width="841" height="310" viewBox="0 0 841 310" fill="none" xmlns="http://www.w3.org/2000/svg">
<g clip-path="url(#clip0)">
<path d="M229.62 69.01V17.24C229.62 7.72 221.9 0 212.38 0H18.28C8.18 0 0 8.18 0 18.28V291.56C0 301.65 8.18 309.84 18.28 309.84H822.24C832.33 309.84 840.52 301.66 840.52 291.56V112.61C840.52 99.34 829.76 88.58 816.49 88.58H249.18C238.38 88.58 229.62 79.82 229.62 69.01Z" fill="#F9B928"/>
<path d="M65.38 222.36V185.55H53.47V156.68H65.39V60.57H103.26V156.68H121V185.55H103.26V208.58C103.26 217.85 106.44 220.5 111.73 220.5C114.11 220.5 116.5 219.97 118.62 219.44L123.39 248.3C108.3 253.06 103.79 253.86 92.14 253.86C80.21 253.87 65.38 248.57 65.38 222.36Z" fill="white"/>
<path d="M177.91 251.22H140.04V60.56H177.91V164.1C185.59 156.68 195.65 154.04 206.51 154.04C233.26 154.04 247.82 170.72 247.82 198.53V251.22H209.69V199.32C209.69 189.26 203.07 183.17 193.54 183.17C184.27 183.17 177.92 189.26 177.92 199.58V251.22H177.91Z" fill="white"/>
<path d="M310.57 154.04C327.25 154.04 334.93 158.28 338.38 162.52V156.69H376.25V251.23H338.38V245.67C334.94 249.91 324.34 253.88 310.31 253.88C278.53 253.88 262.91 233.22 262.91 204.63C262.91 175.75 278.79 154.04 310.57 154.04ZM322.22 223.95C333.61 223.95 341.02 216.01 341.02 204.35C341.02 192.7 333.6 183.69 322.48 183.69C311.09 183.69 303.41 191.9 303.41 204.35C303.42 216.8 311.1 223.95 322.22 223.95Z" fill="white"/>
<path d="M397.41 156.68H435.81V164.89C439.78 158.27 449.58 154.03 461.23 154.03C473.68 154.03 485.59 159.33 492.48 169.39C499.37 159.33 509.16 154.03 524.52 154.03C549.68 154.03 565.83 169.92 565.83 197.73V251.22H527.7V197.73C527.7 188.46 521.87 183.17 514.46 183.17C508.1 183.17 500.95 187.41 500.95 197.73V251.22H462.82V197.73C462.82 188.46 456.73 183.17 449.58 183.17C442.96 183.17 435.81 188.2 435.81 198.79V251.22H397.41V156.68Z" fill="white"/>
<path d="M654 156.68H691.87V251.22H654V243.01C646.32 250.42 636.26 253.87 625.4 253.87C598.65 253.87 584.09 236.13 584.09 206.74V156.69H622.22V206.74C622.22 218.13 628.84 223.95 638.37 223.95C647.9 223.95 653.99 218.39 653.99 206.74V156.68H654Z" fill="white"/>
<path d="M747.46 184.49C747.46 192.96 792.74 187.93 792.74 222.09C792.74 245.12 772.35 253.86 748.78 253.86C733.69 253.86 715.42 251.74 705.62 247.24L713.56 221.82C724.68 225.53 735.01 227.12 744.01 227.12C752.22 227.12 756.46 225.79 756.46 223.14C756.46 214.14 711.18 220.76 711.18 185.27C711.18 163.03 729.19 154.02 752.75 154.02C766.26 154.02 778.44 156.94 791.68 161.7L784.27 186.33C776.06 183.42 764.41 180.51 756.99 180.51C751.43 180.52 747.46 182.11 747.46 184.49Z" fill="white"/>
</g>
<defs>
<clipPath id="clip0">
<rect width="840.52" height="309.83" fill="white"/>
</clipPath>
</defs>
</svg>
